HIERARCHY
ROOT pelvis
{
	OFFSET 0.000000 0.000000 0.000000
	CHANNELS 6 Xposition Yposition Zposition Xrotation Yrotation Zrotation
	JOINT l_hip
	{
		OFFSET 0.195211 -0.245059 -0.022011
		CHANNELS 3 Xrotation Yrotation Zrotation
		JOINT l_knee
		{
			OFFSET 0.083896 -0.996307 -0.018298
			CHANNELS 3 Xrotation Yrotation Zrotation
			JOINT l_ankle
			{
				OFFSET -0.031606 -1.048662 -0.119000
				CHANNELS 3 Xrotation Yrotation Zrotation
				JOINT l_foot
				{
					OFFSET 0.063841 -0.149483 0.312863
					CHANNELS 3 Xrotation Yrotation Zrotation
					End Site
					{
						OFFSET 0.000000 0.000000 0.000000
					}
				}
			}
		}
	}
	JOINT r_hip
	{
		OFFSET -0.188785 -0.243354 -0.013119
		CHANNELS 3 Xrotation Yrotation Zrotation
		JOINT r_knee
		{
			OFFSET -0.098896 -1.013926 -0.025127
			CHANNELS 3 Xrotation Yrotation Zrotation
			JOINT r_ankle
			{
				OFFSET 0.038376 -1.049454 -0.114596
				CHANNELS 3 Xrotation Yrotation Zrotation
				JOINT r_foot
				{
					OFFSET -0.060300 -0.126955 0.322518
					CHANNELS 3 Xrotation Yrotation Zrotation
					End Site
					{
						OFFSET 0.000000 0.000000 0.000000
					}
				}
			}
		}
	}
	JOINT spine1
	{
		OFFSET -0.006861 0.282462 -0.060688
		CHANNELS 3 Xrotation Yrotation Zrotation
		JOINT spine2
		{
			OFFSET 0.009796 0.349212 -0.004686
			CHANNELS 3 Xrotation Yrotation Zrotation
			JOINT spine3
			{
				OFFSET 0.005545 0.134239 0.076232
				CHANNELS 3 Xrotation Yrotation Zrotation
				JOINT neck
				{
					OFFSET -0.005369 0.569656 -0.136135
					CHANNELS 3 Xrotation Yrotation Zrotation
					JOINT head
					{
						OFFSET 0.009621 0.170484 0.137338
						CHANNELS 3 Xrotation Yrotation Zrotation
						End Site
						{
							OFFSET 0.000000 0.000000 0.000000
						}
					}
				}
				JOINT l_collar
				{
					OFFSET 0.205981 0.322192 -0.100872
					CHANNELS 3 Xrotation Yrotation Zrotation
					JOINT l_shoulder
					{
						OFFSET 0.233388 0.086823 -0.019950
						CHANNELS 3 Xrotation Yrotation Zrotation
						JOINT l_elbow
						{
							OFFSET 0.687295 -0.032736 -0.075278
							CHANNELS 3 Xrotation Yrotation Zrotation
							JOINT l_wrist
							{
								OFFSET 0.651109 0.024639 0.000120
								CHANNELS 3 Xrotation Yrotation Zrotation
								JOINT l_hand
								{
									OFFSET 0.217934 -0.026487 -0.036124
									CHANNELS 3 Xrotation Yrotation Zrotation
									End Site
									{
										OFFSET 0.000000 0.000000 0.000000
									}
								}
							}
						}
					}
				}
				JOINT r_collar
				{
					OFFSET -0.210726 0.316244 -0.114374
					CHANNELS 3 Xrotation Yrotation Zrotation
					JOINT r_shoulder
					{
						OFFSET -0.244017 0.089684 -0.026814
						CHANNELS 3 Xrotation Yrotation Zrotation
						JOINT r_elbow
						{
							OFFSET -0.672913 -0.035979 -0.055153
							CHANNELS 3 Xrotation Yrotation Zrotation
							JOINT r_wrist
							{
								OFFSET -0.670689 0.023586 -0.009661
								CHANNELS 3 Xrotation Yrotation Zrotation
								JOINT r_hand
								{
									OFFSET -0.219937 -0.019827 -0.028502
									CHANNELS 3 Xrotation Yrotation Zrotation
									End Site
									{
										OFFSET 0.000000 0.000000 0.000000
									}
								}
							}
						}
					}
				}
			}
		}
	}
}
MOTION
Frames: 16
Frame Time: 0.016667
0.000000 0.000000 0.000000 0.000000 0.000000 0.000000 -20.406132 -4.777809 1.505979 64.758901 -2.299399 -6.196393 0.000000 0.000000 0.000000 0.000000 0.000000 0.000000 -0.104286 -1.861119 4.754381 37.313206 6.609906 4.429850 0.000000 0.000000 0.000000 0.000000 0.000000 0.000000 13.807682 2.594308 2.934649 -0.018144 -1.626527 2.033349 1.286993 -1.626609 1.977263 -10.592832 -2.839383 -0.574809 -13.601438 1.213331 -1.174994 3.928118 0.447048 -18.889775 3.675772 -11.182839 -60.142373 26.693166 -44.281827 30.837578 0.000000 0.000000 0.000000 0.000000 0.000000 0.000000 -4.134087 6.887527 16.060717 -4.872268 20.268927 51.499913 9.003793 26.059858 -9.333236 0.000000 0.000000 0.000000 0.000000 0.000000 0.000000 
0.000000 0.000000 0.000000 0.000000 0.000000 0.000000 -21.421357 -4.738048 1.233955 58.855713 -0.457577 -6.918254 0.000000 0.000000 0.000000 0.000000 0.000000 0.000000 4.398105 -1.991114 4.764573 33.207955 7.659025 2.935771 0.000000 0.000000 0.000000 0.000000 0.000000 0.000000 13.382272 3.909364 2.496174 0.877474 -1.760515 1.954578 1.268328 -0.847031 1.974863 -10.525755 -2.550479 -0.529962 -13.980183 0.493783 -1.451404 3.900012 0.332420 -18.617441 5.569062 -9.446957 -60.000935 21.403483 -39.999898 24.142049 0.000000 0.000000 0.000000 0.000000 0.000000 0.000000 -4.844640 8.653524 15.953493 -6.851045 23.211437 51.534972 11.068704 28.079359 -10.432474 0.000000 0.000000 0.000000 0.000000 0.000000 0.000000 
0.000000 0.000000 0.000000 0.000000 0.000000 0.000000 -22.471085 -4.820219 0.967698 52.232371 0.700833 -7.275253 0.000000 0.000000 0.000000 0.000000 0.000000 0.000000 8.197254 -2.057522 4.614276 28.985244 8.724212 1.610443 0.000000 0.000000 0.000000 0.000000 0.000000 0.000000 12.640951 4.990412 2.163013 1.376792 -1.931000 1.826129 1.233708 -0.213703 1.948182 -10.459487 -2.445086 -0.678589 -14.345333 -0.099820 -1.632432 3.974858 0.413985 -18.236454 7.275676 -8.240277 -60.087137 15.925148 -35.135706 17.602092 0.000000 0.000000 0.000000 0.000000 0.000000 0.000000 -5.693345 10.142976 15.735695 -9.145437 26.553246 51.561315 12.195227 29.122917 -10.503760 0.000000 0.000000 0.000000 0.000000 0.000000 0.000000 
0.000000 0.000000 0.000000 0.000000 0.000000 0.000000 -23.242243 -4.960441 0.778568 45.291615 0.988696 -7.191493 0.000000 0.000000 0.000000 0.000000 0.000000 0.000000 11.576313 -2.071969 4.529920 25.087262 9.728292 0.339060 0.000000 0.000000 0.000000 0.000000 0.000000 0.000000 11.788681 5.886731 1.913260 1.952811 -2.069966 1.641488 1.076570 0.360537 1.868690 -10.303514 -2.329790 -0.639534 -15.009712 -0.819932 -1.855078 4.017691 0.755688 -17.677403 8.805227 -6.672661 -60.112162 13.020923 -29.976394 13.635007 0.000000 0.000000 0.000000 0.000000 0.000000 0.000000 -6.586186 11.457181 15.328453 -11.525439 29.582505 51.909209 14.686987 29.858560 -11.458651 0.000000 0.000000 0.000000 0.000000 0.000000 0.000000 
0.000000 0.000000 0.000000 0.000000 0.000000 0.000000 -23.603482 -5.014632 0.739101 38.255645 0.552581 -7.007696 0.000000 0.000000 0.000000 0.000000 0.000000 0.000000 14.309655 -2.064849 4.237778 22.075108 10.987391 -0.926947 0.000000 0.000000 0.000000 0.000000 0.000000 0.000000 10.819483 6.614360 1.605984 2.583215 -2.078739 1.463222 0.848362 0.978029 1.822724 -10.231560 -1.978240 -0.516986 -15.481942 -1.394055 -2.099938 4.100486 1.182930 -17.204476 10.293246 -5.038968 -60.089248 10.058854 -25.315359 10.414075 0.000000 0.000000 0.000000 0.000000 0.000000 0.000000 -7.389740 12.744513 14.972296 -14.163780 32.345136 52.298716 16.050964 30.212899 -11.937725 0.000000 0.000000 0.000000 0.000000 0.000000 0.000000 
0.000000 0.000000 0.000000 0.000000 0.000000 0.000000 -23.487468 -4.993510 0.674759 31.421054 -0.355942 -6.529986 0.000000 0.000000 0.000000 0.000000 0.000000 0.000000 16.816078 -2.068407 3.718129 19.839231 12.520955 -2.069619 0.000000 0.000000 0.000000 0.000000 0.000000 0.000000 10.056405 7.331683 1.500993 3.182427 -1.834791 1.144593 0.688590 1.729497 1.679683 -10.115237 -1.770265 -0.381116 -16.038293 -1.860558 -2.349264 4.196317 1.685980 -16.502813 11.698986 -3.507390 -60.158672 6.923962 -21.304100 7.328150 0.000000 0.000000 0.000000 0.000000 0.000000 0.000000 -8.040172 14.133048 14.108897 -16.965072 34.796099 53.191355 15.503713 31.254321 -11.672245 0.000000 0.000000 0.000000 0.000000 0.000000 0.000000 
0.000000 0.000000 0.000000 0.000000 0.000000 0.000000 -23.708047 -4.830433 0.867959 25.514312 -1.057239 -6.010225 0.000000 0.000000 0.000000 0.000000 0.000000 0.000000 18.284386 -2.084336 3.105457 18.860424 13.944397 -3.023362 0.000000 0.000000 0.000000 0.000000 0.000000 0.000000 9.131561 7.943273 1.375771 3.706395 -1.339934 0.741394 0.581987 2.402473 1.520433 -10.329568 -1.355527 0.086966 -16.587370 -2.385378 -2.879231 4.271182 2.695902 -15.601204 13.005056 -1.492596 -60.142724 4.994646 -18.883311 5.894957 0.000000 0.000000 0.000000 0.000000 0.000000 0.000000 -8.716401 15.332694 13.032998 -19.972679 36.808814 54.317807 14.316999 32.471454 -11.382888 0.000000 0.000000 0.000000 0.000000 0.000000 0.000000 
0.000000 0.000000 0.000000 0.000000 0.000000 0.000000 -23.684646 -4.557742 1.281781 20.923226 -1.311025 -5.324177 0.000000 0.000000 0.000000 0.000000 0.000000 0.000000 19.516577 -2.340948 2.372049 18.651759 15.346680 -3.688961 0.000000 0.000000 0.000000 0.000000 0.000000 0.000000 8.437133 8.536075 1.360599 4.178865 -0.829514 0.419425 0.567058 3.201141 1.414947 -10.874913 -1.236121 0.198844 -17.140914 -2.679850 -3.076058 4.247214 3.281929 -14.782110 14.819170 0.221210 -60.066822 2.546632 -17.625537 3.591099 0.000000 0.000000 0.000000 0.000000 0.000000 0.000000 -9.217640 16.844772 11.990545 -22.404071 38.581392 54.242337 13.116228 33.800852 -10.658496 0.000000 0.000000 0.000000 0.000000 0.000000 0.000000 
0.000000 0.000000 0.000000 0.000000 0.000000 0.000000 -23.574132 -4.050242 2.085854 18.127235 -1.101949 -4.618420 0.000000 0.000000 0.000000 0.000000 0.000000 0.000000 21.014014 -2.799207 1.430630 18.521622 16.732546 -3.979515 0.000000 0.000000 0.000000 0.000000 0.000000 0.000000 8.162835 9.062505 1.721141 4.697832 -0.424466 0.178940 0.306661 4.015393 1.272955 -11.402878 -1.101812 0.268140 -17.810895 -2.645130 -3.383867 4.316400 3.870740 -14.233714 16.725013 2.080628 -60.125054 2.137174 -16.217621 2.838961 0.000000 0.000000 0.000000 0.000000 0.000000 0.000000 -9.520666 18.375004 11.318885 -25.579325 40.229320 54.201622 13.678702 33.649429 -11.606687 0.000000 0.000000 0.000000 0.000000 0.000000 0.000000 
0.000000 0.000000 0.000000 0.000000 0.000000 0.000000 -23.806809 -3.402826 2.928007 17.568463 -1.202177 -4.344112 0.000000 0.000000 0.000000 0.000000 0.000000 0.000000 22.451416 -3.049303 0.456272 18.332921 18.112295 -4.123394 0.000000 0.000000 0.000000 0.000000 0.000000 0.000000 7.715753 9.439827 2.038210 5.363688 0.187089 -0.221088 0.072860 4.542270 1.149783 -11.499507 -0.629290 0.974217 -18.818718 -2.737203 -4.460803 4.509147 5.261867 -13.497830 18.003886 4.569587 -59.420620 3.804284 -16.626631 3.936155 0.000000 0.000000 0.000000 0.000000 0.000000 0.000000 -10.011956 19.388739 9.984347 -28.796549 41.408087 55.382458 10.209474 35.879971 -10.177016 0.000000 0.000000 0.000000 0.000000 0.000000 0.000000 
0.000000 0.000000 0.000000 0.000000 0.000000 0.000000 -23.365890 -3.328695 3.899105 18.419497 -1.687389 -4.675200 0.000000 0.000000 0.000000 0.000000 0.000000 0.000000 23.737059 -3.678080 -0.796854 19.355696 19.782949 -4.294402 0.000000 0.000000 0.000000 0.000000 0.000000 0.000000 7.830413 9.991592 2.233566 5.927892 0.583488 -0.066216 0.073370 5.212439 1.127648 -12.528934 -0.294815 1.133052 -19.011676 -2.577599 -5.092252 4.559382 5.373248 -13.366117 19.781073 5.860950 -59.085618 3.609202 -15.603335 2.061496 0.000000 0.000000 0.000000 0.000000 0.000000 0.000000 -10.599495 20.838357 10.241759 -31.513552 43.298704 54.407982 9.496003 35.236869 -9.839116 0.000000 0.000000 0.000000 0.000000 0.000000 0.000000 
0.000000 0.000000 0.000000 0.000000 0.000000 0.000000 -23.315206 -3.096106 4.993971 20.418182 -0.896315 -5.362416 0.000000 0.000000 0.000000 0.000000 0.000000 0.000000 24.717332 -3.848211 -1.579820 21.073014 20.862907 -4.710480 0.000000 0.000000 0.000000 0.000000 0.000000 0.000000 7.867440 10.383706 2.391966 6.290622 1.068679 0.070998 -0.089277 5.762192 1.196562 -13.415582 0.062643 1.302041 -19.301174 -2.474393 -5.738399 4.653152 6.005766 -13.007446 21.395079 7.453395 -58.410755 5.310866 -14.545009 1.146789 0.000000 0.000000 0.000000 0.000000 0.000000 0.000000 -11.068953 21.767589 10.031934 -33.650530 44.813195 53.680957 9.416210 35.844325 -9.953486 0.000000 0.000000 0.000000 0.000000 0.000000 0.000000 
0.000000 0.000000 0.000000 0.000000 0.000000 0.000000 -23.390916 -2.544528 5.996988 22.320995 0.525527 -6.130540 0.000000 0.000000 0.000000 0.000000 0.000000 0.000000 25.238533 -3.883357 -2.218875 22.809033 21.855269 -5.012992 0.000000 0.000000 0.000000 0.000000 0.000000 0.000000 7.286402 10.526823 2.694271 7.012376 1.505143 0.174637 -0.347635 5.927902 1.239263 -13.550675 0.338488 1.733995 -19.427684 -2.350345 -6.309613 4.662662 6.813731 -12.687984 21.885011 9.218384 -58.080402 5.519620 -14.842249 1.647819 0.000000 0.000000 0.000000 0.000000 0.000000 0.000000 -11.539449 22.157301 9.821639 -35.271955 45.535799 54.023311 8.713544 37.301491 -10.332963 0.000000 0.000000 0.000000 0.000000 0.000000 0.000000 
0.000000 0.000000 0.000000 0.000000 0.000000 0.000000 -23.897006 -1.964816 7.027583 25.249090 1.649323 -7.273872 0.000000 0.000000 0.000000 0.000000 0.000000 0.000000 25.294774 -4.181229 -3.559457 25.820730 23.070316 -5.379038 0.000000 0.000000 0.000000 0.000000 0.000000 0.000000 6.797482 10.563640 3.135802 7.461902 1.777802 0.381515 -0.470395 6.085464 1.192358 -14.106510 0.564492 1.912016 -19.580084 -2.089726 -6.773609 4.604562 7.798499 -12.261144 22.702787 10.791903 -57.966682 5.315716 -13.742178 0.538750 0.000000 0.000000 0.000000 0.000000 0.000000 0.000000 -11.916782 22.442967 9.619083 -37.515710 46.890478 54.455103 8.097167 38.891550 -10.695797 0.000000 0.000000 0.000000 0.000000 0.000000 0.000000 
0.000000 0.000000 0.000000 0.000000 0.000000 0.000000 -24.521239 -1.529947 6.632713 29.051235 0.555684 -8.813305 0.000000 0.000000 0.000000 0.000000 0.000000 0.000000 25.078137 -4.627994 -4.820053 28.702903 23.356657 -5.628051 0.000000 0.000000 0.000000 0.000000 0.000000 0.000000 6.810900 10.631788 2.902575 7.131011 1.592604 0.659561 -0.414999 6.091849 0.991182 -14.190632 0.207808 2.194239 -20.019248 -2.000628 -7.135757 4.944429 7.590017 -12.419567 22.852143 11.173891 -57.281870 7.992059 -10.663688 -0.575523 0.000000 0.000000 0.000000 0.000000 0.000000 0.000000 -12.135007 22.433739 9.977420 -38.917174 47.740091 54.596543 9.917849 39.517814 -12.638904 0.000000 0.000000 0.000000 0.000000 0.000000 0.000000 
0.000000 0.000000 0.000000 0.000000 0.000000 0.000000 -25.786327 -1.340212 6.371866 33.471837 -0.205677 -10.329726 0.000000 0.000000 0.000000 0.000000 0.000000 0.000000 24.025264 -4.743047 -5.637446 32.041169 23.298403 -5.996591 0.000000 0.000000 0.000000 0.000000 0.000000 0.000000 6.773895 10.491338 2.404604 7.231910 1.388109 0.800630 -0.635714 5.696491 0.796894 -14.182895 0.187625 2.995805 -20.390591 -1.858298 -7.666022 5.033550 7.696488 -12.523667 21.462354 12.443024 -56.993470 8.642636 -10.060326 1.171197 0.000000 0.000000 0.000000 0.000000 0.000000 0.000000 -12.555894 22.034808 10.047836 -39.831623 47.496372 56.242964 11.353743 41.857227 -15.671761 0.000000 0.000000 0.000000 0.000000 0.000000 0.000000 
